HIERARCHY
ROOT pelvis
{
  OFFSET 0 100 0
  CHANNELS 6 Xposition Yposition Zposition Zrotation Xrotation Yrotation
  JOINT pelvis_right_femur
  {
    OFFSET -10.78128 -3.44521 -0.5502486
    CHANNELS 3 Zrotation Xrotation Yrotation
    JOINT right_femur_tibia
    {
      OFFSET -0.8047443 -44.0398 -0.1307829
      CHANNELS 3 Zrotation Xrotation Yrotation
      JOINT right_tibia_foot
      {
        OFFSET 3.006224 -47.83518 -5
        CHANNELS 3 Zrotation Xrotation Yrotation
        End Site
        {
          OFFSET 0 -5 15
        }
      }
    }
  }
  JOINT pelvis_left_femur
  {
    OFFSET 10.78128 -3.44521 -0.5502486
    CHANNELS 3 Zrotation Xrotation Yrotation
    JOINT left_femur_tibia
    {
      OFFSET 0.8047443 -44.0398 -0.1307829
      CHANNELS 3 Zrotation Xrotation Yrotation
      JOINT left_tibia_foot
      {
        OFFSET -4.370144 -48.10324 -4.275266
        CHANNELS 3 Zrotation Xrotation Yrotation
        End Site
        {
          OFFSET 0 -5 15
        }
      }
    }
  }
  JOINT pelvis_spine1
  {
    OFFSET 0 6.468898 -3.129235
    CHANNELS 3 Zrotation Xrotation Yrotation
    JOINT spine1
    {
      OFFSET 0 23.15396 4.99043
      CHANNELS 3 Zrotation Xrotation Yrotation
      JOINT spine2
      {
        OFFSET 0 20.79997 -5.064912
        CHANNELS 3 Zrotation Xrotation Yrotation
        JOINT neck
        {
          OFFSET 0 14.38658 9.616178
          CHANNELS 3 Zrotation Xrotation Yrotation
          End Site
          {
            OFFSET 0 20 0
          }
        }
      }
      JOINT right_manubrium
      {
        OFFSET -5.722621 16.35077 3.967754
        CHANNELS 3 Zrotation Xrotation Yrotation
        JOINT right_clavicle
        {
          OFFSET -13.16364 1.694482 -4.693211
          CHANNELS 3 Zrotation Xrotation Yrotation
          JOINT right_humerus
          {
            OFFSET -28.5034 -0.3100689 -2.792744
            CHANNELS 3 Zrotation Xrotation Yrotation
            JOINT right_radius
            {
              OFFSET -25.15693 0.02248979 -1.271978
              CHANNELS 3 Zrotation Xrotation Yrotation
              End Site
              {
                OFFSET -15 0 0
              }
            }
          }
        }
      }
      JOINT left_manubrium
      {
        OFFSET 5.722621 16.35077 3.967754
        CHANNELS 3 Zrotation Xrotation Yrotation
        JOINT left_clavicle
        {
          OFFSET 13.16364 1.694482 -4.693211
          CHANNELS 3 Zrotation Xrotation Yrotation
          JOINT left_humerus
          {
            OFFSET 29.39168 -1.063119 -2.237045
            CHANNELS 3 Zrotation Xrotation Yrotation
            JOINT left_radius
            {
              OFFSET 24.59957 -0.9528479 0.9047498
              CHANNELS 3 Zrotation Xrotation Yrotation
              End Site
              {
                OFFSET 15 -0 -0
              }
            }
          }
        }
      }
    }
  }
}
MOTION
Frames: 17
Frame Time: 0.0416666666667
0 103.5113 0 2.127365 -0.2011112 -0.03842995 3.556209 -15.14435 12.06919 -0 39.78048 -0 -2.16272 -17.5063 -1.725816 -9.026578 7.023593 -22.97381 -0 7.50437 -0 15.93202 -12.09439 30.825 -4.662593 -4.174781 6.889718 2.660814 11.42398 -7.373811 1.330687 21.19527 6.562151 2.905362 -25.51084 9.612753 7.393795 -21.80973 12.26185 84.50169 38.79175 -18.54217 -0 0 17.77753 -5.381378 7.609188 3.70536 5.163154 -19.09661 -1.908042 -91.82414 23.04898 22.01722 0 0 -19.94761 13.58879 11.16312 -0.9904802
0.4859761 103.5952 1.53892 2.006686 0.3430706 -0.02237999 4.063694 -16.897 12.09691 -0 38.65194 -0 -2.090437 -16.40618 -1.565788 -9.031895 7.478079 -22.69165 -0 6.655017 -0 16.31697 -12.36071 30.82463 -4.54366 -3.959269 6.910042 2.600569 11.41656 -7.302965 1.421666 21.00128 6.6037 2.993705 -25.67949 9.754852 7.337594 -21.75193 12.12915 84.77607 39.38087 -18.75283 -0 0 17.46621 -4.91196 7.57965 3.478258 5.315427 -19.22062 -2.068776 -91.51089 23.08543 21.78258 0 0 -21.10495 14.18692 10.59651 -1.276247
0.8922998 103.2918 3.802549 0.9784993 1.769407 0.1852469 5.153575 -23.98772 9.466504 -0 31.30415 -0 -4.056157 -12.5664 -1.569043 -7.809878 10.55938 -21.07431 -0 4.383183 -0 12.70337 -16.76657 27.30136 -3.935073 -2.89705 5.528301 2.867849 10.09611 -7.575943 1.415301 21.02535 6.824472 3.357715 -25.73399 9.581386 6.629868 -20.17765 11.55738 85.66718 38.3387 -19.73519 -0 0 15.51129 -5.413412 7.233238 3.766016 6.136409 -20.03025 -2.132976 -91.34503 24.5734 20.35001 0 0 -21.58987 12.30283 12.18453 0.72367
1.241191 102.8087 6.422593 0.3893158 2.428425 0.5297588 5.757344 -27.07295 8.549029 -0 28.28561 -0 -5.068061 -10.70005 -1.742 -7.182231 12.0626 -20.34482 -0 3.992487 -0 10.31924 -18.71394 25.21065 -3.505642 -2.370508 4.839004 2.992514 9.410996 -7.726026 1.430278 21.05004 6.874497 3.419204 -25.91416 9.514164 6.181675 -19.48911 11.26122 86.33312 37.62754 -20.4156 -0 0 14.52863 -5.426136 6.990794 3.949027 6.262293 -20.2647 -2.204551 -91.54291 26.21645 20.14719 0 0 -22.06331 10.3189 12.9195 3.190032
1.541035 102.2303 9.474875 -0.2324889 3.119859 0.9848327 6.462751 -30.03236 7.788745 -0 25.30237 -0 -5.945472 -8.709621 -1.796536 -6.596181 13.40585 -19.47853 -0 4.495174 -0 8.010809 -20.084 23.01003 -2.971859 -1.878739 4.242178 3.081396 8.86861 -7.855177 1.447727 20.9999 6.92626 3.47365 -26.11014 9.470591 5.787121 -18.83832 11.00061 87.03197 37.10692 -21.12984 -0 0 13.5068 -5.448857 6.894317 4.096019 6.352618 -20.51788 -2.311324 -91.54018 27.49104 19.86144 0 0 -22.80825 8.792743 13.26448 5.210087
1.808 101.6162 12.9238 -0.792854 3.64272 1.508554 7.101902 -32.15016 7.258839 -0 23.00937 -0 -6.632349 -7.103274 -1.796352 -6.106712 14.34293 -18.68194 -0 5.861206 -0 5.979089 -20.74594 21.02886 -2.43405 -1.503342 3.788366 3.133305 8.501253 -7.955229 1.45203 20.93885 6.967548 3.500705 -26.25822 9.433261 5.498368 -18.30842 10.81713 87.61259 36.73157 -21.72453 -0 0 12.658 -5.523872 6.930391 4.221698 6.362544 -20.70692 -2.405625 -91.47513 28.38338 19.63668 0 0 -23.4399 7.666776 13.38853 6.743037
2.052325 101.024 16.78422 -1.348317 4.033708 2.069022 7.709853 -33.70246 6.774708 -0 20.98328 -0 -7.279268 -5.682011 -1.757265 -5.633609 14.99935 -17.82368 -0 8.216143 -0 3.966474 -20.88381 19.01714 -1.847247 -1.190121 3.394344 3.166748 8.239015 -8.047439 1.437176 20.88657 6.998723 3.504725 -26.35354 9.375125 5.248121 -17.80375 10.68391 88.14689 36.35884 -22.26493 -0 0 11.84283 -5.730306 7.074237 4.372973 6.316619 -20.88192 -2.491428 -91.33111 28.96977 19.38002 0 0 -23.93496 6.786022 13.41226 7.940907
2.283959 100.5111 21.05397 -1.873756 4.248322 2.625185 8.24561 -34.54348 6.312816 -0 19.28897 -0 -7.89734 -4.520487 -1.703878 -5.176909 15.30948 -16.92176 -0 11.5987 -0 1.996032 -20.49509 17.03188 -1.231767 -0.9431801 3.066844 3.181082 8.079071 -8.128483 1.40077 20.86321 7.014149 3.481367 -26.38224 9.285798 5.027943 -17.33286 10.60484 88.62063 35.95242 -22.72833 -0 0 11.08454 -6.085994 7.311273 4.562158 6.203038 -21.03121 -2.56661 -91.14929 29.28685 19.12887 0 0 -24.21712 6.078934 13.38455 8.868751
2.51043 100.1402 25.72939 -2.348834 4.253459 3.132086 8.678382 -34.56226 5.824994 -0 17.88689 -0 -8.507883 -3.636743 -1.651297 -4.726898 15.19534 -15.94771 -0 16.14638 -0 0.06361599 -19.56582 15.08123 -0.595528 -0.757804 2.813184 3.175122 8.021852 -8.194361 1.340728 20.88481 7.005986 3.426535 -26.33246 9.149922 4.816924 -16.89485 10.58371 89.03754 35.46058 -23.10644 -0 0 10.37629 -6.629514 7.63238 4.810069 6.012301 -21.15876 -2.636302 -90.94569 29.34442 18.89549 0 0 -24.2452 5.492863 13.33078 9.576557
2.736708 99.97661 30.78979 -2.732052 4.010343 3.540094 8.964911 -33.59638 5.288765 -0 16.78517 -0 -9.101678 -3.087277 -1.613445 -4.287343 14.52872 -14.8975 -0 21.90527 -0 -1.766148 -18.08574 13.24407 0.03205151 -0.6318944 2.662424 3.142701 8.07739 -8.231447 1.258074 20.96588 6.965837 3.339757 -26.19009 8.955591 4.603816 -16.51022 10.62864 89.38151 34.86134 -23.36771 -0 0 9.745609 -7.384718 8.025314 5.12905 5.736623 -21.26151 -2.707401 -90.74783 29.14559 18.71635 0 0 -23.98197 5.00009 13.26167 10.09193
2.963523 100.0819 36.19082 -2.973225 3.486529 3.800392 9.06467 -31.48854 4.693028 -0 15.95968 -0 -9.655682 -2.926812 -1.600663 -3.862513 13.14509 -13.76662 -0 28.82914 -0 -3.40678 -16.07744 11.61811 0.6079835 -0.5562018 2.655312 3.074554 8.25664 -8.218285 1.157231 21.11846 6.884539 3.224846 -25.94051 8.691861 4.377431 -16.20941 10.74838 89.629 34.14861 -23.46771 -0 0 9.233369 -8.370631 8.474756 5.529829 5.374214 -21.33864 -2.790418 -90.58398 28.69383 18.63512 0 0 -23.41182 4.584221 13.17841 10.43856
3.186131 100.5002 41.85456 -3.01814 2.669844 3.874563 8.947198 -28.13812 4.050694 -0 15.34623 -0 -10.12664 -3.203581 -1.616471 -3.456449 10.86275 -12.56268 -0 36.64347 -0 -4.74833 -13.63725 10.32355 1.069991 -0.5106559 2.840905 2.958418 8.564197 -8.124451 1.047841 21.3479 6.755061 3.093495 -25.57129 8.35361 4.132066 -16.03507 10.94871 89.74286 33.35346 -23.3442 -0 0 8.902503 -9.585266 8.960323 6.01587 4.936674 -21.39009 -2.897823 -90.48442 28.00831 18.70407 0 0 -22.55715 4.240524 13.07486 10.6412
3.394433 101.2368 47.66558 -2.82285 1.58558 3.74773 8.600421 -23.5701 3.397332 -0 14.8154 -0 -10.45567 -3.93912 -1.65168 -3.065962 7.521598 -11.30292 -0 44.75015 -0 -5.680533 -10.96062 9.477856 1.342685 -0.4623302 3.26406 2.78075 8.989111 -7.914076 0.9444307 21.64782 6.575611 2.966095 -25.07512 7.944755 3.869826 -16.0369 11.22751 89.6725 32.55496 -22.91983 -0 0 8.832859 -10.99847 9.459764 6.583156 4.454647 -21.41847 -3.041318 -90.47265 27.13369 18.97266 0 0 -21.49796 3.973819 12.93914 10.73103
3.576795 102.2337 53.47868 -2.372652 0.3150792 3.440151 8.035366 -18.00703 2.782512 -0 14.17753 -0 -10.57793 -5.111431 -1.678826 -2.673617 3.054031 -10.01272 -0 52.15109 -0 -6.116015 -8.346584 9.171732 1.3529 -0.370839 3.944577 2.530627 9.495123 -7.555529 0.8630563 21.99397 6.354252 2.869728 -24.45339 7.481784 3.605299 -16.2631 11.5688 89.35315 31.88568 -22.10855 -0 0 9.112559 -12.54531 9.954166 7.221276 3.980884 -21.42857 -3.2257 -90.55585 26.14664 19.4729 0 0 -20.38018 3.795606 12.7571 10.7458
3.728956 103.3524 59.1453 -1.702522 -0.9977097 3.007812 7.291008 -11.89254 2.251063 -0 13.23147 -0 -10.44406 -6.647788 -1.652675 -2.240167 -2.427137 -8.71597 -0 57.51317 -0 -6.018462 -6.148818 9.442221 1.059609 -0.2042245 4.850859 2.206314 10.01696 -7.038687 0.8134887 22.34148 6.112025 2.829848 -23.71843 6.993447 3.366145 -16.74732 11.93902 88.71054 31.50701 -20.82953 -0 0 9.820248 -14.13403 10.43406 7.921123 3.583744 -21.42475 -3.440762 -90.7175 25.14775 20.20427 0 0 -19.39144 3.716134 12.51814 10.72405
3.865697 104.3828 64.55644 -0.9105682 -2.165313 2.525209 6.443087 -5.821446 1.824963 -0 11.86539 -0 -10.04859 -8.437069 -1.523484 -1.701019 -8.556658 -7.423837 -0 59.4475 -0 -5.428372 -4.669016 10.25176 0.4917148 0.03780033 5.87984 1.823015 10.46959 -6.394833 0.7901662 22.62899 5.880933 2.855745 -22.89556 6.516115 3.184697 -17.49604 12.28906 87.67748 31.54191 -19.03004 -0 0 11.00253 -15.6701 10.90129 8.68689 3.327907 -21.40401 -3.654753 -90.92116 24.23577 21.12947 0 0 -18.69106 3.730603 12.22341 10.69558
4.027255 105.09 69.68566 -0.1531202 -3.009726 2.055604 5.60921 -0.3640901 1.498916 -0 10.17011 -0 -9.449364 -10.36189 -1.263661 -0.9755461 -14.72209 -6.133906 -0 57.00078 -0 -4.477178 -4.024859 11.47806 -0.2263015 0.3060897 6.862593 1.41678 10.77394 -5.705435 0.7705337 22.79225 5.692653 2.924196 -22.02676 6.087682 3.07698 -18.48288 12.56427 86.23143 31.97691 -16.71761 -0 0 12.65381 -17.0892 11.36511 9.545181 3.245287 -21.34535 -3.815618 -91.12998 23.47095 22.19088 0 0 -18.31183 3.803482 11.89348 10.67688
